<svg width="24" height="24" viewBox="0 0 24 24" fill="none" xmlns="http://www.w3.org/2000/svg">
    <g clip-path="url(#clip0_19_168)">
        <path d="M16.6186 3.05176e-05C16.6745 3.05176e-05 16.7303 3.05176e-05 16.7894 3.05176e-05C16.9264 1.69256 16.2803 2.95722 15.4952 3.87304C14.7248 4.78254 13.6699 5.66463 11.9636 5.53079C11.8498 3.8625 12.4969 2.69164 13.281 1.77793C14.0082 0.926391 15.3413 0.168651 16.6186 3.05176e-05Z" fill="black"/>
        <path d="M21.7837 17.6167C21.7837 17.6335 21.7837 17.6483 21.7837 17.6641C21.3042 19.1163 20.6202 20.361 19.7855 21.516C19.0236 22.5646 18.0898 23.9758 16.4226 23.9758C14.982 23.9758 14.025 23.0494 12.5485 23.0241C10.9867 22.9988 10.1278 23.7987 8.69978 24C8.53643 24 8.37307 24 8.21288 24C7.16427 23.8482 6.31801 23.0178 5.70149 22.2695C3.88355 20.0585 2.47873 17.2025 2.21736 13.5476C2.21736 13.1893 2.21736 12.832 2.21736 12.4737C2.32802 9.858 3.599 7.73127 5.28837 6.70057C6.17995 6.15256 7.40561 5.68569 8.77039 5.89436C9.35529 5.98499 9.95284 6.18523 10.4766 6.38336C10.973 6.57411 11.5937 6.9124 12.1818 6.89449C12.5802 6.88289 12.9764 6.67528 13.3779 6.52879C14.5541 6.10408 15.707 5.61718 17.2267 5.84588C19.0531 6.12199 20.3494 6.93348 21.1503 8.18549C19.6053 9.16876 18.3839 10.6505 18.5925 13.1809C18.778 15.4794 20.1143 16.8241 21.7837 17.6167Z" fill="black"/>
    </g>
    <defs>
        <clipPath id="clip0_19_168">
            <rect width="24" height="24" fill="white"/>
        </clipPath>
    </defs>
</svg>
