<svg width="80" height="60" viewBox="0 0 80 60" fill="none" xmlns="http://www.w3.org/2000/svg">
    <path d="M7.31428 0L3.65714 1.875V39.375H10.9714V1.875L7.31428 0ZM23.7714 0L20.1143 1.875V8.68253C22.3454 7.80035 24.845 6.90159 27.4286 6.30847V1.875L23.7714 0ZM40 0L36.5714 1.875V31.4063H43.8857V1.875L40 0ZM56.6857 0L53.0285 1.875V6.30847C55.6123 6.90159 58.1117 7.80035 60.3428 8.68253V1.875L56.6857 0ZM72.6857 0L69.0286 1.875V39.375H76.3429V1.875L72.6857 0ZM32.9143 9.375C25.7779 9.375 14.6635 15.2344 14.6635 15.2344L14.6286 39.375H24.3638L23.5084 38.3882L32.9143 32.9631V9.375ZM47.0857 9.375V32.7515L56.2861 38.412L55.5035 39.375H65.3714L65.3365 15.2344C65.3365 15.2344 54.2221 9.375 47.0857 9.375ZM36.5714 35.1563L29.2571 39.375L36.5714 47.8126H43.8857L50.7429 39.375L43.8857 35.1563H36.5714ZM38.7072 36.6298L40 37.9553L41.2928 36.6296L42.5862 37.9553L41.2928 39.2816L42.2628 40.2759L43.5559 41.6015L42.2628 42.9272L41.2928 43.9216L42.5862 45.2478L41.2928 46.5734L40 45.2478L38.7072 46.5734L37.4138 45.2478L38.7072 43.9216L37.7372 42.9272L36.4441 41.6015L37.7372 40.2759L38.7072 39.2816L37.4138 37.9553L38.7072 36.6296V36.6298ZM40 40.6069L39.0302 41.6014L40 42.5958L40.9698 41.6014L40 40.6069ZM0 43.125V50.625H10.7429L3.65714 43.125H0ZM8.9143 43.125L16.2286 50.625H23.5429L16.2286 43.125H8.9143ZM21.4857 43.125L28.8 50.625H32.9143V48.75L27.4286 43.125H21.4857ZM52.5714 43.125L47.0857 48.75V50.625H51.2L58.5143 43.125H52.5714ZM63.7714 43.125L56.4571 50.625H63.7714L71.0857 43.125H63.7714ZM76.3429 43.125L69.2571 50.625H80V43.125H76.3429ZM36.5714 51.5626V58.125L40.4571 60L43.8857 58.125V51.5624L36.5714 51.5626ZM3.65714 54.375V58.125L7.54283 60L10.9714 58.125V54.375H3.65714ZM69.0286 54.375V58.125L72.9143 60L76.3429 58.125V54.375H69.0286Z" fill="url(#paint0_linear_3_86)"/>
    <defs>
        <linearGradient id="paint0_linear_3_86" x1="0" y1="0" x2="80" y2="56.5" gradientUnits="userSpaceOnUse">
            <stop stop-color="#FCF1B8"/>
            <stop offset="0.917346" stop-color="#F0CA00"/>
        </linearGradient>
    </defs>
</svg>
